<mxfile host="app.diagrams.net" agent="Mozilla/5.0 (Windows NT 10.0; Win64; x64; rv:143.0) Gecko/20100101 Firefox/143.0" version="28.2.3">
  <diagram name="Seite-1" id="whlPGiVhSlHkqhhvS7i_">
    <mxGraphModel dx="1426" dy="779" grid="1" gridSize="10" guides="1" tooltips="1" connect="1" arrows="1" fold="1" page="1" pageScale="1" pageWidth="827" pageHeight="1169" math="0" shadow="0">
      <root>
        <mxCell id="0" />
        <mxCell id="1" parent="0" />
        <mxCell id="OAAbCszZ7vZROpM18Td2-1" value="Model" style="rounded=0;whiteSpace=wrap;html=1;" vertex="1" parent="1">
          <mxGeometry x="340" y="380" width="120" height="60" as="geometry" />
        </mxCell>
        <mxCell id="OAAbCszZ7vZROpM18Td2-2" value="View" style="rounded=0;whiteSpace=wrap;html=1;" vertex="1" parent="1">
          <mxGeometry x="200" y="570" width="120" height="60" as="geometry" />
        </mxCell>
        <mxCell id="OAAbCszZ7vZROpM18Td2-3" value="Controller" style="rounded=0;whiteSpace=wrap;html=1;" vertex="1" parent="1">
          <mxGeometry x="480" y="570" width="120" height="60" as="geometry" />
        </mxCell>
        <mxCell id="OAAbCszZ7vZROpM18Td2-4" value="" style="endArrow=classic;html=1;rounded=0;exitX=1;exitY=0.25;exitDx=0;exitDy=0;entryX=0;entryY=0.25;entryDx=0;entryDy=0;" edge="1" parent="1" source="OAAbCszZ7vZROpM18Td2-2" target="OAAbCszZ7vZROpM18Td2-3">
          <mxGeometry width="50" height="50" relative="1" as="geometry">
            <mxPoint x="350" y="600" as="sourcePoint" />
            <mxPoint x="400" y="550" as="targetPoint" />
          </mxGeometry>
        </mxCell>
        <mxCell id="OAAbCszZ7vZROpM18Td2-5" value="HTTP request" style="edgeLabel;html=1;align=center;verticalAlign=middle;resizable=0;points=[];" vertex="1" connectable="0" parent="OAAbCszZ7vZROpM18Td2-4">
          <mxGeometry x="0.2375" relative="1" as="geometry">
            <mxPoint x="-19" y="-5" as="offset" />
          </mxGeometry>
        </mxCell>
        <mxCell id="OAAbCszZ7vZROpM18Td2-6" value="" style="endArrow=classic;html=1;rounded=0;exitX=0;exitY=0.75;exitDx=0;exitDy=0;entryX=1;entryY=0.75;entryDx=0;entryDy=0;" edge="1" parent="1" source="OAAbCszZ7vZROpM18Td2-3" target="OAAbCszZ7vZROpM18Td2-2">
          <mxGeometry width="50" height="50" relative="1" as="geometry">
            <mxPoint x="389" y="660" as="sourcePoint" />
            <mxPoint x="439" y="610" as="targetPoint" />
          </mxGeometry>
        </mxCell>
        <mxCell id="OAAbCszZ7vZROpM18Td2-7" value="HTTP response" style="edgeLabel;html=1;align=center;verticalAlign=middle;resizable=0;points=[];" vertex="1" connectable="0" parent="OAAbCszZ7vZROpM18Td2-6">
          <mxGeometry x="0.2" y="2" relative="1" as="geometry">
            <mxPoint x="16" y="-7" as="offset" />
          </mxGeometry>
        </mxCell>
        <mxCell id="OAAbCszZ7vZROpM18Td2-8" value="" style="endArrow=classic;html=1;rounded=0;exitX=0.25;exitY=0;exitDx=0;exitDy=0;entryX=0.75;entryY=1;entryDx=0;entryDy=0;" edge="1" parent="1" source="OAAbCszZ7vZROpM18Td2-3" target="OAAbCszZ7vZROpM18Td2-1">
          <mxGeometry width="50" height="50" relative="1" as="geometry">
            <mxPoint x="390" y="430" as="sourcePoint" />
            <mxPoint x="440" y="380" as="targetPoint" />
          </mxGeometry>
        </mxCell>
        <mxCell id="OAAbCszZ7vZROpM18Td2-9" value="command" style="edgeLabel;html=1;align=center;verticalAlign=middle;resizable=0;points=[];" vertex="1" connectable="0" parent="OAAbCszZ7vZROpM18Td2-8">
          <mxGeometry x="-0.1124" y="-1" relative="1" as="geometry">
            <mxPoint x="-15" y="-12" as="offset" />
          </mxGeometry>
        </mxCell>
        <mxCell id="OAAbCszZ7vZROpM18Td2-10" value="" style="endArrow=classic;startArrow=classic;html=1;rounded=0;entryX=1;entryY=0.75;entryDx=0;entryDy=0;exitX=0.75;exitY=0;exitDx=0;exitDy=0;" edge="1" parent="1" source="OAAbCszZ7vZROpM18Td2-3" target="OAAbCszZ7vZROpM18Td2-1">
          <mxGeometry width="50" height="50" relative="1" as="geometry">
            <mxPoint x="390" y="430" as="sourcePoint" />
            <mxPoint x="440" y="380" as="targetPoint" />
          </mxGeometry>
        </mxCell>
        <mxCell id="OAAbCszZ7vZROpM18Td2-11" value="query" style="edgeLabel;html=1;align=center;verticalAlign=middle;resizable=0;points=[];" vertex="1" connectable="0" parent="OAAbCszZ7vZROpM18Td2-10">
          <mxGeometry x="-0.0044" relative="1" as="geometry">
            <mxPoint x="5" y="3" as="offset" />
          </mxGeometry>
        </mxCell>
        <mxCell id="OAAbCszZ7vZROpM18Td2-12" value="client" style="shape=umlActor;verticalLabelPosition=bottom;verticalAlign=top;html=1;outlineConnect=0;" vertex="1" parent="1">
          <mxGeometry x="160" y="570" width="30" height="60" as="geometry" />
        </mxCell>
      </root>
    </mxGraphModel>
  </diagram>
</mxfile>
